# xmcd
# 
# Track frame offsets:
#     150
#     18035
#     35336
#     48731
#     64664
#     85764
#     104935
#     121978
#     138624
#     152438
# 
# Disc length: 2243
# 
# Revision: 1
# Processed by: cddbd v1.5.2PL0 Copyright (c) Steve Scherf et al.
# Submitted via: fre:ac v1.0.31
# 
DISCID=8108c10a
DTITLE=SOFT - Ti guademoupéyen
DYEAR=2017
DGENRE=
TTITLE0=Ti gwadeloupéyen
TTITLE1=Nou Wo
TTITLE2=Kléré
TTITLE3=Bonbonsiwo
TTITLE4=On favè
TTITLE5=Amandine
TTITLE6=Je t'attends
TTITLE7=Solitid
TTITLE8=Ain't no sunchine (Yen ki fè nwè)
TTITLE9=The Deal
EXTD=
EXTT0=
EXTT1=
EXTT2=
EXTT3=
EXTT4=
EXTT5=
EXTT6=
EXTT7=
EXTT8=
EXTT9=
PLAYORDER=
